<svg id="icon" height="512" viewBox="0 0 128 128" width="512" xmlns="http://www.w3.org/2000/svg"><path d="m60.934 94.807a7.062 7.062 0 1 1 -7.054-7.07 7.045 7.045 0 0 1 7.054 7.07z" fill="#414451"/><path d="m53.879 98a3.2 3.2 0 1 1 3.19-3.19 3.2 3.2 0 0 1 -3.19 3.19z" fill="#dbd8dd"/><path d="m88.516 94.807a7.062 7.062 0 1 1 -7.054-7.07 7.045 7.045 0 0 1 7.054 7.07z" fill="#414451"/><path d="m81.46 98a3.2 3.2 0 1 1 3.19-3.19 3.2 3.2 0 0 1 -3.19 3.19z" fill="#dbd8dd"/><path d="m98.945 69.588a3.5 3.5 0 0 1 -2.953 2.463l-48.671 7.33-7.871-41.358 64.7 4.9a2.257 2.257 0 0 1 1.99 2.905z" fill="#eeefee"/><path d="m95.69 87.737h-51.754a5.849 5.849 0 1 1 0-11.7h.791l-7.78-45.41h-8.808a1.75 1.75 0 1 1 0-3.5h10.284a1.749 1.749 0 0 1 1.725 1.455l8.38 48.911a1.75 1.75 0 0 1 -1.728 2.046h-2.864a2.348 2.348 0 1 0 0 4.7h51.754a1.75 1.75 0 0 1 0 3.5z" fill="#eeefee"/><path d="m33.537 26.391v4.817a.252.252 0 0 1 -.252.252h-8.867a2.661 2.661 0 0 1 -2.661-2.66 2.661 2.661 0 0 1 2.661-2.661h8.866a.252.252 0 0 1 .253.252z" fill="#575b6d"/><g fill="#dbd8dd"><rect height="20.126" rx=".486" width="3.516" x="85.665" y="46.978"/><rect height="20.126" rx=".486" width="3.516" x="71.088" y="46.978"/><rect height="20.126" rx=".486" width="3.516" x="56.511" y="46.978"/></g></svg>